<?xml version="1.0" encoding="UTF-8" standalone="no"?>
<!DOCTYPE svg PUBLIC "-//W3C//DTD SVG 1.1//EN" "http://www.w3.org/Graphics/SVG/1.1/DTD/svg11.dtd">
<svg width="100%" height="100%" viewBox="0 0 192 192" version="1.1" xmlns="http://www.w3.org/2000/svg" xmlns:xlink="http://www.w3.org/1999/xlink" xml:space="preserve" xmlns:serif="http://www.serif.com/" style="fill-rule:evenodd;clip-rule:evenodd;stroke-linejoin:round;stroke-miterlimit:2;">
    <g transform="matrix(1,0,0,1,0,-1)">
        <path d="M192,42L192,150C192,173.18 173.18,192 150,192L42,192C18.82,192 0,173.18 0,150L0,42C0,18.82 18.82,0 42,0L150,0C173.18,0 192,18.82 192,42Z" style="fill:rgb(255,249,236);"/>
    </g>
    <g transform="matrix(0.290354,0,0,0.290354,68.126035,68.126035)">
        <g transform="matrix(1,0,0,1,-531.576657,-419.582594)">
            <path d="M622.1,624.92C619.53,617.2 614.75,606.18 610.83,599.2L607.03,592.59L604.21,597.61C597.35,609.73 585.84,618.8 571.64,623.45C564.29,625.9 560.25,626.39 549.23,626.27C541.03,626.27 532.82,625.41 528.17,624.19C510.78,619.66 495.96,608.76 488.74,595.29C485.43,589.04 484.94,586.84 484.94,578.76C484.94,572.76 485.55,567.98 486.78,565.78C488.98,561.37 488.86,561.37 483.11,564.68C479.19,567.01 477.35,567.25 464.99,566.76C453.23,566.39 450.29,565.78 444.42,562.96C427.28,554.63 417.6,537.73 417.6,515.81C417.6,498.3 421.64,488.01 432.66,477.97C438.54,472.46 443.56,469.89 450.91,468.54C453.36,468.05 456.54,466.7 458.01,465.6C460.34,463.64 460.46,463.27 458.87,461.93C457.52,460.83 455.69,460.71 451.77,461.56C448.83,462.29 443.69,462.91 440.5,462.91C433.52,462.91 429.97,459.97 425.8,450.91C422.74,443.93 421.51,426.05 423.6,416.62C426.54,402.9 435.11,389.8 447.23,380.49C456.17,373.75 464.5,370.33 474.91,369.1C487.89,367.63 494.75,369.22 505.16,376.08C514.83,382.33 516.18,382.82 517.41,380.86C517.78,380.25 514.47,377.31 509.94,374.25C498.43,366.53 497.2,364.33 497.2,350.86C497.2,341.19 497.69,338.86 500.87,332.12C507.97,317.06 525.12,303.95 544.1,298.81C557.69,295.14 582.31,295.75 592.72,299.91C606.19,305.42 615.25,314.24 620.52,326.85C622.97,333.1 623.34,335.67 623.34,354.65C623.34,373.02 623.58,376.08 625.54,378.41C627.62,380.98 627.87,380.98 629.46,379.02C630.93,377.31 631.42,371.3 631.91,352.81C632.52,329.05 632.52,328.69 636.07,322.32C640.97,313.5 648.56,306.89 659.83,301.5L669.26,296.97L687.63,296.97C703.79,296.97 707.1,297.34 715.06,299.91C733.43,305.91 750.08,320.48 755.72,335.55C757.8,340.94 758.17,344.49 757.8,353.06L757.43,363.84L752.41,368.37C749.72,370.82 745.43,374.49 742.98,376.33C738.45,379.76 737.22,382.09 739.92,382.09C740.65,382.09 744.33,379.76 748,377.07C755.59,371.31 763.06,368.62 771.51,368.62C800.41,368.62 826.37,390.05 831.64,418.22C833.6,428.75 832.5,442.59 829.07,450.43C824.05,462.19 817.44,465 803.97,461.45C799.07,460.1 798.21,460.23 796.25,462.18C794.29,464.14 794.29,464.38 796.49,466.1C797.84,467.08 799.92,467.81 801.14,467.81C805.79,467.81 816.82,473.08 822.2,477.73C825.87,481.04 829.3,485.81 832.36,492.06C837.01,501.24 837.01,501.49 837.01,516.18C837.01,530.14 836.77,531.24 833.09,539.08C828.19,549.61 820.6,557.69 811.29,562.47C804.19,566.27 803.45,566.39 788.51,566.39C774.92,566.39 772.59,566.15 770.39,564.06C766.96,560.88 765.98,562.22 768.31,566.88C771.37,572.64 770.88,585.86 767.33,593.33C761.21,606.31 749.45,615.99 731.08,622.84C722.88,625.9 720.43,626.27 707.2,626.27C680.75,626.27 662.26,617.45 652.09,600.19C650.13,596.76 647.93,593.94 647.44,593.94C646.09,593.94 636.05,615 633.48,622.96C631.52,629.08 631.15,629.45 627.48,629.45C623.93,629.45 623.32,628.96 622.09,624.92L622.1,624.92ZM557.81,573.49C556.71,568.71 551.69,562.47 547.28,560.14C542.14,557.57 541.52,558.79 544.71,565.04C546.91,569.08 555.61,576.8 558.18,576.8C558.42,576.8 558.3,575.33 557.81,573.49ZM706.6,569.82C710.4,565.53 713.34,559.78 712.23,558.8C711.37,557.94 705,561.62 702.07,564.8C700.6,566.39 698.52,569.7 697.54,572.15L695.58,576.68L699.25,575.46C701.21,574.73 704.52,572.15 706.6,569.83L706.6,569.82ZM664.47,524.63C669.61,522.18 701.09,489.97 706.72,481.28C719.58,461.69 719.95,443.32 707.82,427.27C695.94,411.47 678.31,404.37 661.65,408.9C653.45,411.1 642.18,419.55 636.55,427.51C632.14,433.76 630.92,434.74 627.49,434.74C624.43,434.74 623.08,433.88 620.51,430.21C614.02,420.66 605.2,413.56 594.92,409.64C586.23,406.46 573.24,407.56 564.43,412.21C546.18,422.01 535.16,442.34 538.84,459.6C541.04,470.38 547.53,482.13 557.21,492.54C565.41,501.48 590.03,523.89 616.6,546.55L628.72,556.96L644.64,541.77C653.33,533.32 662.27,525.61 664.48,524.63L664.47,524.63ZM498.17,519.36C506.01,515.44 515.31,503.81 512.74,501.36C512.37,500.87 509.31,501.24 505.88,502.09C498.65,503.8 490.82,510.05 487.27,516.91L484.94,521.69L489.23,521.69C491.68,521.69 495.72,520.59 498.17,519.36ZM769.05,520.58C769.05,519.97 767.21,516.78 765.13,513.6C760.84,507.23 749.94,500.5 745.17,501.11C738.92,502.09 746.03,513.6 755.95,518.62C762.07,521.68 769.05,522.66 769.05,520.58ZM502.09,428.24C502.09,426.4 495.35,419.79 491.44,417.71C488.26,416.12 482.5,415.87 482.5,417.47C482.5,419.31 487.77,425.19 491.56,427.51C495.97,430.2 502.09,430.57 502.09,428.24ZM762.93,428C766.24,426.29 772.73,419.06 772.73,417.22C772.73,415.87 766.61,416.24 763.79,417.71C760.36,419.42 754.48,424.94 753.01,427.75C752.03,429.46 752.4,429.83 755.58,429.83C757.66,429.83 760.97,428.97 762.93,427.99L762.93,428ZM573.12,362.85C573.12,359.79 567.36,351.09 563.81,349.01C557.81,345.21 556.71,346.32 559.89,352.68C563.07,358.93 573.12,366.64 573.12,362.84L573.12,362.85ZM688.36,360.89C691.91,357.95 696.81,350.48 696.81,348.15C696.81,345.58 694.73,346.31 690.07,350.35C680.76,358.55 679.29,368.6 688.36,360.88L688.36,360.89Z" style="fill:white;fill-rule:nonzero;"/>
        </g>
        <g transform="matrix(1,0,0,1,-531.576657,-419.582594)">
            <path d="M420.04,747.01C420.04,746.4 421.02,745.42 422.24,744.68C424.93,743.21 451.39,737.21 461.06,735.99C465.1,735.38 474.78,733.79 482.49,732.32C501.96,728.89 518.62,727.05 562.21,723.87C580.33,722.52 584.38,720.93 593.07,711.62C604.95,698.88 610.21,681.74 610.34,655.17C610.34,639.01 607.65,620.76 604.95,619.04C604.34,618.67 601.15,620.39 597.97,622.84C559.27,652.6 496.33,639.49 476.49,597.61C474.53,593.45 472.57,587.94 472.08,585.36L471.35,580.83L463.02,579.97C434.61,577.4 412.57,558.17 405.95,530.13C401.54,511.03 405.71,492.17 418.07,476C420.52,472.82 422.48,470 422.48,469.75C422.48,469.51 420.28,465.59 417.58,461.06C406.68,442.2 406.44,419.79 416.97,398.36C427.13,377.79 449.05,361.5 472.2,357.46C476.85,356.6 481.26,355.5 482,354.89C482.86,354.28 483.59,350.36 483.96,346.2C484.94,330.4 496.94,312.28 514.94,299.54C523.14,293.66 527.43,291.46 538.21,287.66C548.99,283.86 579.6,282.88 589.15,285.95C601.76,290.11 610.21,295.26 619.15,304.2L627.72,312.89L635.19,304.93C645.11,294.28 661.03,286.07 675.36,283.99C704.02,279.95 732.43,289.38 752.51,309.71C764.14,321.47 769.53,332.61 771.25,348.04L772.11,355.76L779.46,356.62C806.77,359.56 832.61,380.74 842.16,408.05C844.85,415.52 845.34,419.07 845.34,429.85C845.34,444.42 843.26,452.02 836.03,463.16L831.87,469.77L835.91,474.55C841.79,481.65 847.18,492.92 849.26,502.72C851.46,513.5 851.46,517.66 849.26,528.44C843.5,555.99 822.44,575.59 794.15,579.63L783.13,581.1L782.27,586.61C780.56,596.77 774.68,606.57 764.27,616.37C748.23,631.31 728.27,639.27 706.59,639.27C688.59,639.27 668.14,632.53 656.75,622.74C653.81,620.29 650.99,618.58 650.38,619.07C649.77,619.44 648.18,623.97 646.95,629.23C644.01,641.84 644.01,670.5 646.95,682.62C651.11,699.52 659.32,712.5 669.48,718.5C674.62,721.56 676.95,721.93 703.03,723.89C749.2,727.44 784.83,732.71 819.61,741.03C830.39,743.6 835.16,745.32 835.16,746.54C835.16,748.62 837.61,748.74 807.48,745.19C748.94,738.33 692.12,734.78 638.48,734.78C571.49,734.78 504.75,738.45 447.81,745.19C418.54,748.74 420.01,748.62 420.01,747.03L420.04,747.01ZM638.02,600.06C645.61,584.87 648.67,584.02 655.16,595.41C665.08,612.68 683.82,622.47 707.21,622.47C716.27,622.59 719.82,621.98 727.42,619.16C745.67,612.3 757.55,602.75 763.67,589.65C767.22,582.18 767.34,575.81 764.16,569.44C761.34,563.93 761.1,560.75 763.18,558.66C765.51,556.33 769.55,556.95 773.47,560.01C776.53,562.34 778.37,562.7 788.66,562.7C799.31,562.7 800.91,562.33 807.64,558.78C816.95,554 824.54,545.92 829.44,535.39C832.87,528.04 833.36,525.96 833.36,516.16C833.36,505.75 833.12,504.4 828.71,495.71C825.65,489.46 822.22,484.69 818.55,481.38C813.04,476.6 802.02,471.46 797.24,471.46C793.93,471.46 789.89,467.17 789.89,463.87C789.89,457.26 798.46,454.81 809.73,458.24C813.89,459.46 814.87,459.34 817.81,457.14C825.89,451.14 830.3,437.18 828.22,423.71C824.3,398.97 803.85,377.79 779.48,373.38C768.83,371.42 761.72,373.38 751.44,380.85C742.87,387.1 739.32,388.2 735.52,385.38C731.6,382.56 732.58,378.4 738.34,373.62C753.53,360.88 753.53,361.01 754.14,353.17C755.12,338.84 745.81,323.53 729.65,312.64C716.06,303.58 705.77,300.64 687.65,300.64C673.2,300.64 672.71,300.76 663.53,305.17C652.26,310.56 644.67,317.17 639.77,325.99C636.22,332.36 636.22,332.73 635.61,356.73C635,380.49 634.88,381.1 632.06,383.43C628.26,386.49 626.3,386.37 622.75,382.7C619.69,379.76 619.69,379.39 619.69,358.58C619.69,339.35 619.32,336.78 616.87,330.54C611.6,317.93 602.54,309.11 589.07,303.6C578.66,299.44 560.78,298.95 547.8,302.5C521.47,309.6 500.9,330.79 500.9,350.87C500.9,360.18 502.98,363.48 513.64,370.59C520.99,375.49 521.72,376.47 521.72,380.26C521.72,384.67 519.27,387 514.74,387C513.52,387 508,383.94 502.49,380.39C491.1,372.92 484.86,371.45 474.2,373.41C446.4,378.8 424.36,407.09 426.56,434.4C427.29,443.34 432.19,454.61 436.72,457.67C439.29,459.26 440.76,459.38 446.64,458.16C457.78,455.96 461.34,456.32 463.78,460C465.62,462.82 465.62,463.55 464.02,466.37C462.31,469.43 459.98,470.66 448.34,474.09C442.34,475.93 432.3,484.25 428.01,491.11C421.15,502.01 419.44,517.68 423.72,530.42C430.58,550.87 444.78,562.01 464.99,563.12C474.17,563.61 475.52,563.36 480.54,560.43C487.4,556.51 490.7,556.39 492.42,560.19C493.52,562.39 493.28,563.99 491.2,568.03C487.4,575.5 487.77,582.97 492.42,591.66C502.34,610.15 524.5,622.28 549.24,622.64C570.92,623.01 592.1,610.76 601.41,592.51C604.59,586.39 608.88,586.14 612.31,591.9C616.23,598.02 622.72,612.23 625.17,619.58L627.37,626.19L630.68,617.13C632.52,612.11 635.82,604.52 638.03,600.11L638.02,600.06Z" style="fill:rgb(3,55,31);fill-rule:nonzero;"/>
        </g>
        <g transform="matrix(1,0,0,1,-531.576657,-419.582594)">
            <path d="M555.48,580.46C546.05,577.52 538.83,568.7 538.46,559.4C538.22,554.5 538.46,554.13 541.52,553.77C545.93,553.28 553.89,557.57 557.68,562.46C561.35,567.24 563.8,577.77 561.84,580.09C560.37,581.93 560.37,581.93 555.47,580.46L555.48,580.46Z" style="fill:rgb(3,55,31);fill-rule:nonzero;"/>
        </g>
        <g transform="matrix(1,0,0,1,-531.576657,-419.582594)">
            <path d="M691.9,576.79C691.9,572.01 694.84,564.79 698.39,561.11C703.66,555.35 714.92,551.44 716.88,554.62C717.37,555.23 717,558.42 716.39,561.72C714.06,572.37 705,580.46 695.57,580.46C692.26,580.46 691.9,580.09 691.9,576.79Z" style="fill:rgb(3,55,31);fill-rule:nonzero;"/>
        </g>
        <g transform="matrix(1,0,0,1,-531.576657,-419.582594)">
            <path d="M480.78,524.26C480.41,523.77 480.54,521.69 481.15,519.61C485.19,505.4 496.7,497.2 512.38,497.2C517.77,497.2 518.01,497.32 518.01,500.63C517.89,508.47 510.66,518.51 501.85,523.04C497.07,525.49 482.01,526.35 480.79,524.26L480.78,524.26Z" style="fill:rgb(3,55,31);fill-rule:nonzero;"/>
        </g>
        <g transform="matrix(1,0,0,1,-531.576657,-419.582594)">
            <path d="M752.28,522.3C745.18,518.75 740.77,513.61 738.07,505.77C736.36,500.75 736.36,500.14 738.19,498.79C743.82,494.38 761.09,499.4 766.97,507.24C770.77,512.14 773.95,519.36 773.95,522.92C773.95,525.12 773.22,525.37 766.23,525.37C760.35,525.37 756.92,524.64 752.27,522.31L752.28,522.3Z" style="fill:rgb(3,55,31);fill-rule:nonzero;"/>
        </g>
        <g transform="matrix(1,0,0,1,-531.576657,-419.582594)">
            <path d="M491.93,432.9C486.05,430.94 481.77,427.02 478.7,421.02C474.78,413.43 475.27,412.69 484.33,412.69C493.15,412.69 497.19,414.28 502.33,419.67C505.27,422.85 508.21,428.36 508.21,431.06C508.21,432.16 500.49,434.73 497.8,434.73C497.19,434.61 494.49,433.87 491.92,432.89L491.93,432.9Z" style="fill:rgb(3,55,31);fill-rule:nonzero;"/>
        </g>
        <g transform="matrix(1,0,0,1,-531.576657,-419.582594)">
            <path d="M751.3,433.88C747.26,432.9 746.65,431.55 748.12,427.14C749.59,422.85 755.35,416.49 760.12,414.04C761.59,413.31 766.49,412.69 770.9,412.69L779.1,412.69L778.37,416.12C777.15,420.9 771.39,428.73 767.23,431.31C763.19,433.64 755.23,434.98 751.31,433.88L751.3,433.88Z" style="fill:rgb(3,55,31);fill-rule:nonzero;"/>
        </g>
        <g transform="matrix(1,0,0,1,-531.576657,-419.582594)">
            <path d="M570.18,368C567.49,367.02 563.93,365.31 562.22,363.96C557.69,360.78 553.4,351.71 553.77,346.57C554.14,342.9 554.63,342.28 557.57,341.92C562.96,341.31 571.16,346.82 574.22,353.06C576.67,358.2 577.77,367.88 575.81,368.98C575.32,369.35 572.75,368.86 570.18,368Z" style="fill:rgb(3,55,31);fill-rule:nonzero;"/>
        </g>
        <g transform="matrix(1,0,0,1,-531.576657,-419.582594)">
            <path d="M678.43,363.22C678.43,356.73 679.65,353.67 684.43,348.65C688.59,344 693.37,341.67 698.15,341.67L702.07,341.67L701.21,347.3C699.74,358.44 692.39,367.02 683.21,368.24L678.43,368.97L678.43,363.21L678.43,363.22Z" style="fill:rgb(3,55,31);fill-rule:nonzero;"/>
        </g>
        <g transform="matrix(1,0,0,1,-531.576657,-419.582594)">
            <path d="M552.54,700.6C539.31,696.07 528.17,685.78 521.56,671.94C517.52,663.61 518.5,663.12 537.36,663.12C552.18,663.12 553.28,663.24 560.87,666.92C573.61,672.92 584.99,686.51 585.73,696.31C585.97,699.37 585.49,699.74 579.85,701.21C571.28,703.54 560.26,703.29 552.54,700.6Z" style="fill:rgb(3,55,31);fill-rule:nonzero;"/>
        </g>
        <g transform="matrix(1,0,0,1,-531.576657,-419.582594)">
            <path d="M674.76,701.33C667.9,699.49 667.29,696.92 671.58,688.59C676.6,678.67 682.6,672.79 692.89,667.77C702.2,663.12 702.2,663.12 717.75,663.12C728.4,663.12 733.91,663.61 734.89,664.59C737.46,667.16 729.87,680.51 721.3,688.71C711.01,698.51 700.97,702.92 689.22,702.79C684.32,702.79 677.83,702.06 674.77,701.32L674.76,701.33Z" style="fill:rgb(3,55,31);fill-rule:nonzero;"/>
        </g>
        <g transform="matrix(1,0,0,1,-531.576657,-419.582594)">
            <path d="M613.53,550.83C551.32,497.19 541.03,485.8 535.77,465.96C529.77,442.69 539.81,419.79 560.87,408.4C566.87,405.22 569.07,404.73 580.22,404.36C590.14,403.99 594.06,404.24 598.59,405.95C609.24,409.99 617.69,417.09 626.14,428.97C627.49,430.93 628.1,430.56 632.75,423.95C638.51,415.87 649.65,407.54 657.98,405.09C665.94,402.89 680.51,403.25 687.98,405.7C700.96,410.23 713.94,423.21 718.47,436.19C719.94,440.72 720.67,445.86 720.55,453.09C720.43,465.09 717.49,474.03 710.39,484.93C704.76,493.5 673.41,525.83 668.14,528.28C666.06,529.26 656.75,537.34 647.57,546.04C638.26,554.86 629.81,562.08 628.59,562.08C627.37,561.96 620.63,556.94 613.53,550.81L613.53,550.83Z" style="fill:rgb(253,207,21);fill-rule:nonzero;"/>
        </g>
    </g>
</svg>
