<svg xmlns="http://www.w3.org/2000/svg" style="display:none">
  <symbol id="i-sun" viewBox="0 0 24 24"><circle cx="12" cy="12" r="4"/><path d="M12 2v2M12 20v2M4.93 4.93l1.42 1.42M17.66 17.66l1.41 1.41M2 12h2M20 12h2M4.93 19.07l1.42-1.42M17.66 6.34l1.41-1.41"/></symbol>
  <symbol id="i-target" viewBox="0 0 24 24"><circle cx="12" cy="12" r="8"/><circle cx="12" cy="12" r="3"/><path d="M15 9l6-6M17 3h4v4"/></symbol>
  <symbol id="i-chart" viewBox="0 0 24 24"><path d="M4 19V9M10 19V5M16 19v-7M22 19H2"/></symbol>
  <symbol id="i-report" viewBox="0 0 24 24"><path d="M6 2h9l4 4v16H6z"/><path d="M15 2v5h5M9 12h6M9 16h6"/></symbol>
  <symbol id="i-settings" viewBox="0 0 24 24"><circle cx="12" cy="12" r="3"/><path d="M19.4 15a1.7 1.7 0 0 0 .34 1.88l.06.06-2.83 2.83-.06-.06A1.7 1.7 0 0 0 15 19.4a1.7 1.7 0 0 0-1 .6 1.7 1.7 0 0 0-.4 1.1V21H9.6v-.1A1.7 1.7 0 0 0 8.6 19.4a1.7 1.7 0 0 0-1.88.34l-.06.06-2.83-2.83.06-.06A1.7 1.7 0 0 0 4.6 15a1.7 1.7 0 0 0-.6-1 1.7 1.7 0 0 0-1.1-.4H3V9.6h.1A1.7 1.7 0 0 0 4.6 8.6a1.7 1.7 0 0 0-.34-1.88l-.06-.06 2.83-2.83.06.06A1.7 1.7 0 0 0 9 4.6a1.7 1.7 0 0 0 1-.6 1.7 1.7 0 0 0 .4-1.1V3h4v.1a1.7 1.7 0 0 0 1 1.5 1.7 1.7 0 0 0 1.88-.34l.06-.06 2.83 2.83-.06.06A1.7 1.7 0 0 0 19.4 9c.12.37.34.7.65.95.3.25.68.39 1.07.4H21v4h-.1a1.7 1.7 0 0 0-1.5 1z"/></symbol>
  <symbol id="i-mood1" viewBox="0 0 48 48"><path d="M24 5C13.5 5 5 13.5 5 24s8.5 19 19 19 19-8.5 19-19S34.5 5 24 5z"/><circle cx="17" cy="20" r="2"/><circle cx="31" cy="20" r="2"/><path d="M15 34c3-6 15-6 18 0"/></symbol>
  <symbol id="i-mood2" viewBox="0 0 48 48"><path d="M24 5C13.5 5 5 13.5 5 24s8.5 19 19 19 19-8.5 19-19S34.5 5 24 5z"/><circle cx="17" cy="20" r="2"/><circle cx="31" cy="20" r="2"/><path d="M16 33c2-4 14-4 16 0"/></symbol>
  <symbol id="i-mood3" viewBox="0 0 48 48"><path d="M24 5C13.5 5 5 13.5 5 24s8.5 19 19 19 19-8.5 19-19S34.5 5 24 5z"/><circle cx="17" cy="20" r="2"/><circle cx="31" cy="20" r="2"/><path d="M16 31h16"/></symbol>
  <symbol id="i-mood4" viewBox="0 0 48 48"><path d="M24 5C13.5 5 5 13.5 5 24s8.5 19 19 19 19-8.5 19-19S34.5 5 24 5z"/><circle cx="17" cy="20" r="2"/><circle cx="31" cy="20" r="2"/><path d="M15 29c3 6 15 6 18 0"/></symbol>
  <symbol id="i-mood5" viewBox="0 0 48 48"><path d="M24 5C13.5 5 5 13.5 5 24s8.5 19 19 19 19-8.5 19-19S34.5 5 24 5z"/><path d="M14 19c2-2 4-2 6 0M28 19c2-2 4-2 6 0"/><path d="M14 28c4 9 16 9 20 0"/></symbol>
  <symbol id="i-connection" viewBox="0 0 24 24"><circle cx="8" cy="8" r="3"/><circle cx="17" cy="9" r="2.5"/><path d="M2 20c0-4 2.6-7 6-7s6 3 6 7M13 20c.2-3 1.8-5.5 4.5-5.5S22 17 22 20"/></symbol>
  <symbol id="i-heart" viewBox="0 0 24 24"><path d="M20.8 4.6a5.5 5.5 0 0 0-7.8 0L12 5.6l-1-1a5.5 5.5 0 0 0-7.8 7.8l1 1L12 21l7.8-7.6 1-1a5.5 5.5 0 0 0 0-7.8z"/></symbol>
  <symbol id="i-search" viewBox="0 0 24 24"><circle cx="11" cy="11" r="7"/><path d="M20 20l-4-4"/></symbol>
  <symbol id="i-chevron" viewBox="0 0 24 24"><path d="M6 9l6 6 6-6"/></symbol>
  <symbol id="i-lock" viewBox="0 0 24 24"><rect x="4" y="10" width="16" height="11" rx="2"/><path d="M8 10V7a4 4 0 0 1 8 0v3"/></symbol>
  <symbol id="i-spark" viewBox="0 0 24 24"><path d="M12 2l1.7 5.3L19 9l-5.3 1.7L12 16l-1.7-5.3L5 9l5.3-1.7zM19 15l.9 2.1L22 18l-2.1.9L19 21l-.9-2.1L16 18l2.1-.9z"/></symbol>
  <symbol id="i-breathe" viewBox="0 0 24 24"><path d="M4 10h9a3 3 0 1 0-3-3M3 14h14a3 3 0 1 1-3 3M5 18h5"/></symbol>

<symbol id="i-check" viewBox="0 0 24 24"><path d="m5 12 4 4L19 6"/></symbol>
<symbol id="i-thumb" viewBox="0 0 24 24"><path d="M7 10v11H3V10h4Z"/><path d="M7 19h10.2a2 2 0 0 0 1.95-1.55l1.38-6A2 2 0 0 0 18.58 9H14l.7-3.2A2.3 2.3 0 0 0 12.45 3L7 10v9Z"/></symbol>
<symbol id="i-plus" viewBox="0 0 24 24"><path d="M12 5v14M5 12h14"/></symbol>

<symbol id="i-leaf" viewBox="0 0 24 24"><path d="M20 4C11 4 5 8.5 5 15c0 3 2 5 5 5 6.5 0 10-7 10-16Z"/><path d="M4 21c3-5 7-8 13-11"/></symbol>
<symbol id="i-eye" viewBox="0 0 24 24"><path d="M2 12s3.5-6 10-6 10 6 10 6-3.5 6-10 6S2 12 2 12Z"/><circle cx="12" cy="12" r="2.5"/></symbol>
<symbol id="i-fox" viewBox="0 0 24 24"><path d="M5 5l4 3h6l4-3-1 7a6 6 0 0 1-12 0L5 5Z"/><path d="M9 13h.01M15 13h.01M10 16c1.2 1 2.8 1 4 0"/></symbol>
<symbol id="i-flower" viewBox="0 0 24 24"><circle cx="12" cy="12" r="2.5"/><path d="M12 9c-3-1-4-4-2-5 2-1 3 2 2 5ZM15 12c1-3 4-4 5-2 1 2-2 3-5 2ZM12 15c3 1 4 4 2 5-2 1-3-2-2-5ZM9 12c-1 3-4 4-5 2-1-2 2-3 5-2Z"/></symbol>
<symbol id="i-cup" viewBox="0 0 24 24"><path d="M4 8h13v6a5 5 0 0 1-5 5H9a5 5 0 0 1-5-5V8Z"/><path d="M17 10h2a3 3 0 0 1 0 6h-2M8 3v2M12 3v2"/></symbol>
<symbol id="i-moon" viewBox="0 0 24 24"><path d="M20 15.5A8 8 0 0 1 8.5 4 8.5 8.5 0 1 0 20 15.5Z"/></symbol>
<symbol id="i-pause" viewBox="0 0 24 24"><path d="M8 5v14M16 5v14"/></symbol>
<symbol id="i-play" viewBox="0 0 24 24"><path d="m8 5 11 7-11 7V5Z"/></symbol>
</svg>
