<?xml version="1.0" encoding="UTF-8" standalone="no"?>
<!DOCTYPE svg PUBLIC "-//W3C//DTD SVG 1.1//EN" "http://www.w3.org/Graphics/SVG/1.1/DTD/svg11.dtd">
<svg width="100%" height="100%" viewBox="0 0 820 260" version="1.1" xmlns="http://www.w3.org/2000/svg" xmlns:xlink="http://www.w3.org/1999/xlink" xml:space="preserve" xmlns:serif="http://www.serif.com/" style="fill-rule:evenodd;clip-rule:evenodd;stroke-linejoin:round;stroke-miterlimit:2;">
    <g transform="matrix(1,0,0,1,10,10)">
        <g transform="matrix(8.993381,0,0,8.993381,-229.884384,-985.23855)">
            <g transform="matrix(1,0,0,1,51.603,135.99)">
                <path d="M0.662,0C0.596,0 0.546,-0.039 0.513,-0.117C0.479,-0.195 0.463,-0.256 0.463,-0.299C0.463,-0.428 0.527,-0.5 0.656,-0.516C0.812,-0.527 0.969,-0.545 1.125,-0.568C1.281,-0.592 1.413,-0.642 1.521,-0.718C1.628,-0.794 1.682,-0.914 1.682,-1.078L1.682,-7.23C1.682,-7.398 1.623,-7.521 1.506,-7.597C1.389,-7.673 1.248,-7.724 1.084,-7.749C0.92,-7.774 0.766,-7.791 0.621,-7.799C0.539,-7.807 0.483,-7.823 0.454,-7.849C0.425,-7.874 0.41,-7.93 0.41,-8.016C0.41,-8.059 0.427,-8.118 0.46,-8.194C0.493,-8.271 0.543,-8.311 0.609,-8.314L4.102,-8.314L4.74,-6.416L6.129,-2.619L7.957,-7.646C7.996,-7.756 8.031,-7.874 8.062,-8.001C8.094,-8.128 8.113,-8.232 8.121,-8.314L11.262,-8.314C11.328,-8.314 11.378,-8.275 11.411,-8.197C11.444,-8.119 11.461,-8.059 11.461,-8.016C11.461,-7.887 11.396,-7.814 11.268,-7.799C11.072,-7.783 10.882,-7.749 10.696,-7.696C10.511,-7.644 10.418,-7.553 10.418,-7.424L10.418,-1.084C10.418,-0.916 10.468,-0.795 10.567,-0.721C10.667,-0.646 10.786,-0.598 10.925,-0.574C11.063,-0.551 11.191,-0.531 11.309,-0.516C11.391,-0.508 11.446,-0.492 11.476,-0.469C11.505,-0.445 11.52,-0.389 11.52,-0.299C11.52,-0.256 11.503,-0.195 11.47,-0.117C11.437,-0.039 11.387,0 11.32,0L7.781,0C7.715,0 7.665,-0.039 7.632,-0.117C7.599,-0.195 7.582,-0.256 7.582,-0.299C7.582,-0.428 7.646,-0.5 7.775,-0.516C7.9,-0.527 8.032,-0.546 8.171,-0.571C8.31,-0.597 8.429,-0.635 8.528,-0.686C8.628,-0.736 8.678,-0.805 8.678,-0.891L8.678,-7.506L8.502,-7.506L5.777,0L5.455,0L2.473,-7.506L2.25,-7.506L2.25,-1.084C2.25,-0.916 2.314,-0.794 2.443,-0.718C2.572,-0.642 2.725,-0.592 2.9,-0.568C3.076,-0.545 3.234,-0.527 3.375,-0.516C3.457,-0.508 3.513,-0.492 3.542,-0.469C3.571,-0.445 3.586,-0.389 3.586,-0.299C3.586,-0.256 3.569,-0.195 3.536,-0.117C3.503,-0.039 3.453,0 3.387,0L0.662,0Z" style="fill:rgb(3,55,31);"/>
                <path d="M12.545,0C12.479,0 12.429,-0.029 12.396,-0.088C12.362,-0.146 12.346,-0.197 12.346,-0.24C12.346,-0.373 12.41,-0.445 12.539,-0.457C12.684,-0.473 12.832,-0.504 12.984,-0.551C13.137,-0.598 13.213,-0.678 13.213,-0.791L13.219,-4.559C13.219,-4.801 13.168,-4.966 13.066,-5.054C12.965,-5.142 12.846,-5.193 12.709,-5.209C12.572,-5.225 12.451,-5.246 12.346,-5.273C12.307,-5.293 12.273,-5.318 12.246,-5.35C12.219,-5.381 12.205,-5.434 12.205,-5.508C12.205,-5.555 12.217,-5.608 12.24,-5.669C12.264,-5.729 12.299,-5.762 12.346,-5.766C12.854,-5.797 13.312,-5.817 13.723,-5.827C14.133,-5.837 14.447,-5.842 14.666,-5.842C14.697,-5.842 14.733,-5.826 14.774,-5.795C14.815,-5.764 14.838,-5.701 14.842,-5.607L14.842,-0.984C14.842,-0.828 14.882,-0.715 14.962,-0.645C15.042,-0.574 15.138,-0.528 15.249,-0.507C15.36,-0.485 15.463,-0.469 15.557,-0.457C15.639,-0.449 15.694,-0.434 15.724,-0.41C15.753,-0.387 15.768,-0.33 15.768,-0.24C15.768,-0.197 15.751,-0.146 15.718,-0.088C15.685,-0.029 15.635,0 15.568,0L12.545,0ZM13.998,-6.779C13.721,-6.779 13.487,-6.873 13.298,-7.061C13.108,-7.248 13.014,-7.486 13.014,-7.775C13.014,-8.064 13.108,-8.303 13.298,-8.49C13.487,-8.678 13.721,-8.771 13.998,-8.771C14.271,-8.771 14.504,-8.678 14.695,-8.49C14.887,-8.303 14.982,-8.064 14.982,-7.775C14.982,-7.486 14.887,-7.248 14.695,-7.061C14.504,-6.873 14.271,-6.779 13.998,-6.779Z" style="fill:rgb(3,55,31);"/>
                <path d="M16.559,0C16.492,0 16.442,-0.029 16.409,-0.088C16.376,-0.146 16.359,-0.197 16.359,-0.24C16.359,-0.369 16.424,-0.441 16.553,-0.457C16.697,-0.477 16.84,-0.512 16.98,-0.562C17.121,-0.613 17.191,-0.703 17.191,-0.832L17.191,-4.559C17.191,-4.801 17.139,-4.966 17.033,-5.054C16.928,-5.142 16.807,-5.193 16.67,-5.209C16.533,-5.225 16.416,-5.246 16.318,-5.273C16.279,-5.293 16.246,-5.318 16.219,-5.35C16.191,-5.381 16.178,-5.434 16.178,-5.508C16.178,-5.555 16.189,-5.609 16.213,-5.672C16.236,-5.734 16.271,-5.768 16.318,-5.771C16.811,-5.799 17.258,-5.817 17.66,-5.827C18.062,-5.837 18.365,-5.842 18.568,-5.842C18.6,-5.842 18.635,-5.826 18.674,-5.795C18.713,-5.764 18.736,-5.701 18.744,-5.607L18.744,-4.951C18.818,-5.033 18.971,-5.153 19.201,-5.312C19.432,-5.47 19.709,-5.614 20.033,-5.745C20.357,-5.876 20.697,-5.941 21.053,-5.941C21.361,-5.941 21.647,-5.899 21.911,-5.815C22.175,-5.731 22.388,-5.57 22.55,-5.332C22.712,-5.094 22.793,-4.744 22.793,-4.283L22.793,-1.025C22.793,-0.838 22.836,-0.707 22.922,-0.633C23.008,-0.559 23.11,-0.515 23.229,-0.501C23.349,-0.487 23.457,-0.473 23.555,-0.457C23.621,-0.449 23.67,-0.433 23.701,-0.407C23.732,-0.382 23.748,-0.326 23.748,-0.24C23.748,-0.197 23.731,-0.146 23.698,-0.088C23.665,-0.029 23.615,0 23.549,0L20.596,0C20.529,0 20.479,-0.029 20.446,-0.088C20.413,-0.146 20.396,-0.197 20.396,-0.24C20.396,-0.303 20.408,-0.353 20.432,-0.39C20.455,-0.427 20.504,-0.449 20.578,-0.457C20.703,-0.469 20.831,-0.507 20.962,-0.571C21.093,-0.636 21.158,-0.723 21.158,-0.832L21.158,-4.318C21.158,-4.404 21.147,-4.51 21.126,-4.635C21.104,-4.76 21.044,-4.87 20.944,-4.966C20.845,-5.062 20.678,-5.109 20.443,-5.109C20.225,-5.109 20.008,-5.069 19.793,-4.989C19.578,-4.909 19.385,-4.812 19.213,-4.699C19.041,-4.586 18.904,-4.479 18.803,-4.377L18.803,-1.025C18.803,-0.775 18.871,-0.622 19.008,-0.565C19.145,-0.509 19.285,-0.473 19.43,-0.457C19.512,-0.449 19.567,-0.434 19.597,-0.41C19.626,-0.387 19.641,-0.33 19.641,-0.24C19.641,-0.197 19.624,-0.146 19.591,-0.088C19.558,-0.029 19.508,0 19.441,0L16.559,0Z" style="fill:rgb(3,55,31);"/>
                <path d="M27.018,0.17C26.385,0.17 25.878,0.025 25.497,-0.264C25.116,-0.553 24.842,-0.93 24.674,-1.395C24.506,-1.859 24.422,-2.355 24.422,-2.883C24.422,-3.41 24.526,-3.906 24.735,-4.371C24.944,-4.836 25.262,-5.214 25.688,-5.505C26.113,-5.796 26.654,-5.941 27.311,-5.941C27.627,-5.941 27.909,-5.914 28.157,-5.859C28.405,-5.805 28.648,-5.695 28.887,-5.531L28.828,-6.475L28.828,-7.805C28.828,-7.957 28.795,-8.079 28.729,-8.171C28.662,-8.263 28.572,-8.332 28.459,-8.379C28.346,-8.426 28.221,-8.46 28.084,-8.481C27.947,-8.503 27.811,-8.521 27.674,-8.537C27.635,-8.557 27.602,-8.582 27.574,-8.613C27.547,-8.645 27.533,-8.697 27.533,-8.771C27.533,-8.818 27.546,-8.872 27.571,-8.933C27.597,-8.993 27.631,-9.025 27.674,-9.029C28.01,-9.053 28.35,-9.068 28.693,-9.076C29.037,-9.084 29.35,-9.089 29.631,-9.091C29.912,-9.093 30.123,-9.094 30.264,-9.094C30.295,-9.094 30.332,-9.077 30.375,-9.044C30.418,-9.011 30.439,-8.947 30.439,-8.854L30.439,-1.025C30.439,-0.775 30.513,-0.622 30.659,-0.565C30.806,-0.509 30.951,-0.473 31.096,-0.457C31.178,-0.449 31.233,-0.434 31.263,-0.41C31.292,-0.387 31.307,-0.33 31.307,-0.24C31.307,-0.197 31.29,-0.146 31.257,-0.088C31.224,-0.029 31.174,0 31.107,0L29.309,0C29.078,0 28.945,-0.052 28.91,-0.155C28.875,-0.259 28.859,-0.412 28.863,-0.615C28.664,-0.357 28.387,-0.162 28.031,-0.029C27.676,0.104 27.338,0.17 27.018,0.17ZM27.715,-0.592C27.906,-0.592 28.112,-0.644 28.333,-0.747C28.554,-0.851 28.719,-0.99 28.828,-1.166L28.828,-4.717C28.762,-4.881 28.626,-5.026 28.421,-5.153C28.216,-5.28 28,-5.344 27.773,-5.344C27.359,-5.344 27.036,-5.239 26.804,-5.03C26.571,-4.821 26.408,-4.531 26.314,-4.16C26.221,-3.789 26.174,-3.363 26.174,-2.883C26.174,-2.445 26.221,-2.054 26.314,-1.708C26.408,-1.362 26.567,-1.09 26.792,-0.891C27.017,-0.691 27.324,-0.592 27.715,-0.592Z" style="fill:rgb(3,55,31);"/>
                <path d="M32.162,0C32.096,0 32.046,-0.039 32.013,-0.117C31.979,-0.195 31.963,-0.256 31.963,-0.299C31.963,-0.428 32.027,-0.5 32.156,-0.516C32.312,-0.527 32.469,-0.545 32.625,-0.568C32.781,-0.592 32.913,-0.642 33.021,-0.718C33.128,-0.794 33.182,-0.914 33.182,-1.078L33.182,-7.23C33.182,-7.398 33.123,-7.521 33.006,-7.597C32.889,-7.673 32.748,-7.724 32.584,-7.749C32.42,-7.774 32.266,-7.791 32.121,-7.799C32.039,-7.807 31.983,-7.823 31.954,-7.849C31.925,-7.874 31.91,-7.93 31.91,-8.016C31.91,-8.059 31.927,-8.118 31.96,-8.194C31.993,-8.271 32.043,-8.311 32.109,-8.314L35.602,-8.314L36.24,-6.416L37.629,-2.619L39.457,-7.646C39.496,-7.756 39.531,-7.874 39.562,-8.001C39.594,-8.128 39.613,-8.232 39.621,-8.314L42.762,-8.314C42.828,-8.314 42.878,-8.275 42.911,-8.197C42.944,-8.119 42.961,-8.059 42.961,-8.016C42.961,-7.887 42.896,-7.814 42.768,-7.799C42.572,-7.783 42.382,-7.749 42.196,-7.696C42.011,-7.644 41.918,-7.553 41.918,-7.424L41.918,-1.084C41.918,-0.916 41.968,-0.795 42.067,-0.721C42.167,-0.646 42.286,-0.598 42.425,-0.574C42.563,-0.551 42.691,-0.531 42.809,-0.516C42.891,-0.508 42.946,-0.492 42.976,-0.469C43.005,-0.445 43.02,-0.389 43.02,-0.299C43.02,-0.256 43.003,-0.195 42.97,-0.117C42.937,-0.039 42.887,0 42.82,0L39.281,0C39.215,0 39.165,-0.039 39.132,-0.117C39.099,-0.195 39.082,-0.256 39.082,-0.299C39.082,-0.428 39.146,-0.5 39.275,-0.516C39.4,-0.527 39.532,-0.546 39.671,-0.571C39.81,-0.597 39.929,-0.635 40.028,-0.686C40.128,-0.736 40.178,-0.805 40.178,-0.891L40.178,-7.506L40.002,-7.506L37.277,0L36.955,0L33.973,-7.506L33.75,-7.506L33.75,-1.084C33.75,-0.916 33.814,-0.794 33.943,-0.718C34.072,-0.642 34.225,-0.592 34.4,-0.568C34.576,-0.545 34.734,-0.527 34.875,-0.516C34.957,-0.508 35.013,-0.492 35.042,-0.469C35.071,-0.445 35.086,-0.389 35.086,-0.299C35.086,-0.256 35.069,-0.195 35.036,-0.117C35.003,-0.039 34.953,0 34.887,0L32.162,0Z" style="fill:rgb(3,55,31);"/>
                <path d="M43.998,-1.418C43.998,-1.809 44.11,-2.13 44.335,-2.382C44.56,-2.634 44.854,-2.835 45.217,-2.985C45.58,-3.136 45.973,-3.25 46.395,-3.328C46.816,-3.406 47.225,-3.465 47.619,-3.504L47.619,-4.453C47.619,-4.672 47.582,-4.85 47.508,-4.986C47.434,-5.123 47.324,-5.226 47.18,-5.294C47.035,-5.362 46.854,-5.396 46.635,-5.396C46.447,-5.396 46.31,-5.386 46.222,-5.364C46.134,-5.343 46.068,-5.32 46.025,-5.297L45.164,-3.773C44.891,-3.773 44.663,-3.843 44.481,-3.981C44.3,-4.12 44.209,-4.312 44.209,-4.559C44.209,-4.785 44.291,-4.984 44.455,-5.156C44.619,-5.328 44.834,-5.473 45.1,-5.59C45.365,-5.707 45.654,-5.795 45.967,-5.854C46.279,-5.912 46.586,-5.941 46.887,-5.941C47.332,-5.941 47.708,-5.896 48.015,-5.807C48.321,-5.717 48.567,-5.593 48.753,-5.435C48.938,-5.276 49.073,-5.095 49.157,-4.89C49.241,-4.685 49.283,-4.465 49.283,-4.23L49.283,-1.166C49.283,-1.014 49.305,-0.881 49.348,-0.768C49.391,-0.654 49.443,-0.598 49.506,-0.598C49.561,-0.598 49.636,-0.607 49.731,-0.627C49.827,-0.646 49.893,-0.66 49.928,-0.668C49.994,-0.672 50.044,-0.638 50.077,-0.565C50.11,-0.493 50.127,-0.424 50.127,-0.357C50.127,-0.311 50.115,-0.277 50.092,-0.258C50.014,-0.203 49.834,-0.124 49.553,-0.021C49.271,0.083 48.928,0.135 48.521,0.135C48.209,0.135 47.997,0.087 47.886,-0.009C47.774,-0.104 47.719,-0.309 47.719,-0.621L47.719,-0.715C47.465,-0.426 47.17,-0.212 46.834,-0.073C46.498,0.065 46.125,0.135 45.715,0.135C45.48,0.135 45.229,0.083 44.962,-0.021C44.694,-0.124 44.467,-0.289 44.279,-0.516C44.092,-0.742 43.998,-1.043 43.998,-1.418ZM45.75,-1.471C45.75,-1.26 45.817,-1.07 45.952,-0.902C46.087,-0.734 46.283,-0.65 46.541,-0.65C46.814,-0.65 47.04,-0.702 47.218,-0.806C47.396,-0.909 47.527,-1.012 47.613,-1.113L47.613,-3.053C47.305,-3.006 47.008,-2.937 46.723,-2.845C46.438,-2.753 46.204,-2.603 46.022,-2.394C45.841,-2.185 45.75,-1.877 45.75,-1.471Z" style="fill:rgb(3,55,31);"/>
                <path d="M50.871,0C50.805,0 50.755,-0.029 50.722,-0.088C50.688,-0.146 50.672,-0.197 50.672,-0.24C50.672,-0.369 50.736,-0.441 50.865,-0.457C51.025,-0.473 51.179,-0.504 51.325,-0.551C51.472,-0.598 51.545,-0.678 51.545,-0.791L51.545,-4.559C51.545,-4.801 51.494,-4.967 51.393,-5.057C51.291,-5.146 51.172,-5.201 51.035,-5.221C50.898,-5.24 50.777,-5.264 50.672,-5.291C50.633,-5.311 50.6,-5.336 50.572,-5.367C50.545,-5.398 50.531,-5.451 50.531,-5.525C50.531,-5.572 50.544,-5.626 50.569,-5.687C50.595,-5.747 50.629,-5.779 50.672,-5.783C51.18,-5.807 51.628,-5.823 52.017,-5.833C52.405,-5.843 52.707,-5.85 52.922,-5.854C52.953,-5.854 52.988,-5.838 53.027,-5.807C53.066,-5.775 53.09,-5.713 53.098,-5.619L53.098,-4.535C53.211,-4.762 53.362,-4.982 53.552,-5.197C53.741,-5.412 53.96,-5.59 54.208,-5.73C54.456,-5.871 54.727,-5.941 55.02,-5.941C55.262,-5.941 55.452,-5.893 55.591,-5.795C55.729,-5.697 55.827,-5.573 55.884,-5.423C55.94,-5.272 55.969,-5.113 55.969,-4.945C55.969,-4.762 55.923,-4.598 55.831,-4.453C55.739,-4.309 55.629,-4.193 55.5,-4.107C55.371,-4.021 55.252,-3.979 55.143,-3.979L54.381,-4.969C54.217,-4.969 54.057,-4.91 53.9,-4.793C53.744,-4.676 53.603,-4.525 53.476,-4.342C53.349,-4.158 53.246,-3.969 53.168,-3.773L53.168,-0.984C53.168,-0.832 53.224,-0.721 53.335,-0.65C53.446,-0.58 53.583,-0.534 53.745,-0.513C53.907,-0.491 54.062,-0.473 54.211,-0.457C54.293,-0.449 54.349,-0.434 54.378,-0.41C54.407,-0.387 54.422,-0.33 54.422,-0.24C54.422,-0.197 54.405,-0.146 54.372,-0.088C54.339,-0.029 54.289,0 54.223,0L50.871,0Z" style="fill:rgb(3,55,31);"/>
                <path d="M56.531,0C56.465,0 56.415,-0.029 56.382,-0.088C56.349,-0.146 56.332,-0.197 56.332,-0.24C56.332,-0.369 56.396,-0.441 56.525,-0.457C56.67,-0.469 56.806,-0.498 56.933,-0.545C57.06,-0.592 57.123,-0.674 57.123,-0.791L57.123,-7.805C57.123,-8.047 57.072,-8.212 56.971,-8.3C56.869,-8.388 56.75,-8.439 56.613,-8.455C56.477,-8.471 56.355,-8.492 56.25,-8.52C56.211,-8.539 56.178,-8.564 56.15,-8.596C56.123,-8.627 56.109,-8.68 56.109,-8.754C56.109,-8.801 56.121,-8.855 56.145,-8.918C56.168,-8.98 56.203,-9.014 56.25,-9.018C56.758,-9.049 57.214,-9.068 57.618,-9.076C58.022,-9.084 58.332,-9.09 58.547,-9.094C58.578,-9.094 58.615,-9.077 58.658,-9.044C58.701,-9.011 58.723,-8.947 58.723,-8.854L58.723,-2.812L60.891,-4.934C60.934,-4.969 60.955,-5.002 60.955,-5.033C60.955,-5.111 60.87,-5.175 60.7,-5.224C60.53,-5.272 60.369,-5.301 60.217,-5.309C60.139,-5.316 60.089,-5.345 60.067,-5.394C60.046,-5.442 60.035,-5.498 60.035,-5.561C60.035,-5.604 60.052,-5.658 60.085,-5.725C60.118,-5.791 60.168,-5.824 60.234,-5.824L62.818,-5.824C62.885,-5.824 62.935,-5.791 62.968,-5.725C63.001,-5.658 63.018,-5.604 63.018,-5.561C63.018,-5.49 63.002,-5.431 62.971,-5.382C62.939,-5.333 62.891,-5.309 62.824,-5.309C62.637,-5.309 62.443,-5.265 62.244,-5.177C62.045,-5.089 61.873,-4.988 61.729,-4.875L60.645,-3.832C60.758,-3.617 60.881,-3.389 61.014,-3.146C61.146,-2.904 61.286,-2.661 61.433,-2.417C61.579,-2.173 61.726,-1.935 61.872,-1.702C62.019,-1.47 62.158,-1.252 62.291,-1.049C62.4,-0.885 62.523,-0.748 62.66,-0.639C62.797,-0.529 62.932,-0.469 63.064,-0.457C63.131,-0.453 63.18,-0.438 63.211,-0.41C63.242,-0.383 63.258,-0.326 63.258,-0.24C63.258,-0.197 63.241,-0.146 63.208,-0.088C63.175,-0.029 63.125,0 63.059,0L60.961,0C60.898,-0.047 60.821,-0.148 60.729,-0.305C60.638,-0.461 60.537,-0.646 60.428,-0.861C60.318,-1.076 60.207,-1.301 60.094,-1.535C59.98,-1.77 59.873,-1.994 59.771,-2.209C59.67,-2.424 59.578,-2.605 59.496,-2.754L58.723,-1.998L58.723,-0.984C58.723,-0.75 58.786,-0.607 58.913,-0.557C59.04,-0.506 59.176,-0.473 59.32,-0.457C59.402,-0.449 59.458,-0.434 59.487,-0.41C59.517,-0.387 59.531,-0.33 59.531,-0.24C59.531,-0.197 59.515,-0.146 59.481,-0.088C59.448,-0.029 59.398,0 59.332,0L56.531,0Z" style="fill:rgb(3,55,31);"/>
            </g>
        </g>
    </g>
    <g transform="matrix(1,0,0,1,-68,0)">
        <g transform="matrix(0.511849,0,0,0.511849,-122.720395,-135.400657)">
            <path d="M622.1,624.92C619.53,617.2 614.75,606.18 610.83,599.2L607.03,592.59L604.21,597.61C597.35,609.73 585.84,618.8 571.64,623.45C564.29,625.9 560.25,626.39 549.23,626.27C541.03,626.27 532.82,625.41 528.17,624.19C510.78,619.66 495.96,608.76 488.74,595.29C485.43,589.04 484.94,586.84 484.94,578.76C484.94,572.76 485.55,567.98 486.78,565.78C488.98,561.37 488.86,561.37 483.11,564.68C479.19,567.01 477.35,567.25 464.99,566.76C453.23,566.39 450.29,565.78 444.42,562.96C427.28,554.63 417.6,537.73 417.6,515.81C417.6,498.3 421.64,488.01 432.66,477.97C438.54,472.46 443.56,469.89 450.91,468.54C453.36,468.05 456.54,466.7 458.01,465.6C460.34,463.64 460.46,463.27 458.87,461.93C457.52,460.83 455.69,460.71 451.77,461.56C448.83,462.29 443.69,462.91 440.5,462.91C433.52,462.91 429.97,459.97 425.8,450.91C422.74,443.93 421.51,426.05 423.6,416.62C426.54,402.9 435.11,389.8 447.23,380.49C456.17,373.75 464.5,370.33 474.91,369.1C487.89,367.63 494.75,369.22 505.16,376.08C514.83,382.33 516.18,382.82 517.41,380.86C517.78,380.25 514.47,377.31 509.94,374.25C498.43,366.53 497.2,364.33 497.2,350.86C497.2,341.19 497.69,338.86 500.87,332.12C507.97,317.06 525.12,303.95 544.1,298.81C557.69,295.14 582.31,295.75 592.72,299.91C606.19,305.42 615.25,314.24 620.52,326.85C622.97,333.1 623.34,335.67 623.34,354.65C623.34,373.02 623.58,376.08 625.54,378.41C627.62,380.98 627.87,380.98 629.46,379.02C630.93,377.31 631.42,371.3 631.91,352.81C632.52,329.05 632.52,328.69 636.07,322.32C640.97,313.5 648.56,306.89 659.83,301.5L669.26,296.97L687.63,296.97C703.79,296.97 707.1,297.34 715.06,299.91C733.43,305.91 750.08,320.48 755.72,335.55C757.8,340.94 758.17,344.49 757.8,353.06L757.43,363.84L752.41,368.37C749.72,370.82 745.43,374.49 742.98,376.33C738.45,379.76 737.22,382.09 739.92,382.09C740.65,382.09 744.33,379.76 748,377.07C755.59,371.31 763.06,368.62 771.51,368.62C800.41,368.62 826.37,390.05 831.64,418.22C833.6,428.75 832.5,442.59 829.07,450.43C824.05,462.19 817.44,465 803.97,461.45C799.07,460.1 798.21,460.23 796.25,462.18C794.29,464.14 794.29,464.38 796.49,466.1C797.84,467.08 799.92,467.81 801.14,467.81C805.79,467.81 816.82,473.08 822.2,477.73C825.87,481.04 829.3,485.81 832.36,492.06C837.01,501.24 837.01,501.49 837.01,516.18C837.01,530.14 836.77,531.24 833.09,539.08C828.19,549.61 820.6,557.69 811.29,562.47C804.19,566.27 803.45,566.39 788.51,566.39C774.92,566.39 772.59,566.15 770.39,564.06C766.96,560.88 765.98,562.22 768.31,566.88C771.37,572.64 770.88,585.86 767.33,593.33C761.21,606.31 749.45,615.99 731.08,622.84C722.88,625.9 720.43,626.27 707.2,626.27C680.75,626.27 662.26,617.45 652.09,600.19C650.13,596.76 647.93,593.94 647.44,593.94C646.09,593.94 636.05,615 633.48,622.96C631.52,629.08 631.15,629.45 627.48,629.45C623.93,629.45 623.32,628.96 622.09,624.92L622.1,624.92ZM557.81,573.49C556.71,568.71 551.69,562.47 547.28,560.14C542.14,557.57 541.52,558.79 544.71,565.04C546.91,569.08 555.61,576.8 558.18,576.8C558.42,576.8 558.3,575.33 557.81,573.49ZM706.6,569.82C710.4,565.53 713.34,559.78 712.23,558.8C711.37,557.94 705,561.62 702.07,564.8C700.6,566.39 698.52,569.7 697.54,572.15L695.58,576.68L699.25,575.46C701.21,574.73 704.52,572.15 706.6,569.83L706.6,569.82ZM664.47,524.63C669.61,522.18 701.09,489.97 706.72,481.28C719.58,461.69 719.95,443.32 707.82,427.27C695.94,411.47 678.31,404.37 661.65,408.9C653.45,411.1 642.18,419.55 636.55,427.51C632.14,433.76 630.92,434.74 627.49,434.74C624.43,434.74 623.08,433.88 620.51,430.21C614.02,420.66 605.2,413.56 594.92,409.64C586.23,406.46 573.24,407.56 564.43,412.21C546.18,422.01 535.16,442.34 538.84,459.6C541.04,470.38 547.53,482.13 557.21,492.54C565.41,501.48 590.03,523.89 616.6,546.55L628.72,556.96L644.64,541.77C653.33,533.32 662.27,525.61 664.48,524.63L664.47,524.63ZM498.17,519.36C506.01,515.44 515.31,503.81 512.74,501.36C512.37,500.87 509.31,501.24 505.88,502.09C498.65,503.8 490.82,510.05 487.27,516.91L484.94,521.69L489.23,521.69C491.68,521.69 495.72,520.59 498.17,519.36ZM769.05,520.58C769.05,519.97 767.21,516.78 765.13,513.6C760.84,507.23 749.94,500.5 745.17,501.11C738.92,502.09 746.03,513.6 755.95,518.62C762.07,521.68 769.05,522.66 769.05,520.58ZM502.09,428.24C502.09,426.4 495.35,419.79 491.44,417.71C488.26,416.12 482.5,415.87 482.5,417.47C482.5,419.31 487.77,425.19 491.56,427.51C495.97,430.2 502.09,430.57 502.09,428.24ZM762.93,428C766.24,426.29 772.73,419.06 772.73,417.22C772.73,415.87 766.61,416.24 763.79,417.71C760.36,419.42 754.48,424.94 753.01,427.75C752.03,429.46 752.4,429.83 755.58,429.83C757.66,429.83 760.97,428.97 762.93,427.99L762.93,428ZM573.12,362.85C573.12,359.79 567.36,351.09 563.81,349.01C557.81,345.21 556.71,346.32 559.89,352.68C563.07,358.93 573.12,366.64 573.12,362.84L573.12,362.85ZM688.36,360.89C691.91,357.95 696.81,350.48 696.81,348.15C696.81,345.58 694.73,346.31 690.07,350.35C680.76,358.55 679.29,368.6 688.36,360.88L688.36,360.89Z" style="fill:white;fill-rule:nonzero;"/>
        </g>
        <g transform="matrix(0.511849,0,0,0.511849,-122.720395,-135.400657)">
            <path d="M420.04,747.01C420.04,746.4 421.02,745.42 422.24,744.68C424.93,743.21 451.39,737.21 461.06,735.99C465.1,735.38 474.78,733.79 482.49,732.32C501.96,728.89 518.62,727.05 562.21,723.87C580.33,722.52 584.38,720.93 593.07,711.62C604.95,698.88 610.21,681.74 610.34,655.17C610.34,639.01 607.65,620.76 604.95,619.04C604.34,618.67 601.15,620.39 597.97,622.84C559.27,652.6 496.33,639.49 476.49,597.61C474.53,593.45 472.57,587.94 472.08,585.36L471.35,580.83L463.02,579.97C434.61,577.4 412.57,558.17 405.95,530.13C401.54,511.03 405.71,492.17 418.07,476C420.52,472.82 422.48,470 422.48,469.75C422.48,469.51 420.28,465.59 417.58,461.06C406.68,442.2 406.44,419.79 416.97,398.36C427.13,377.79 449.05,361.5 472.2,357.46C476.85,356.6 481.26,355.5 482,354.89C482.86,354.28 483.59,350.36 483.96,346.2C484.94,330.4 496.94,312.28 514.94,299.54C523.14,293.66 527.43,291.46 538.21,287.66C548.99,283.86 579.6,282.88 589.15,285.95C601.76,290.11 610.21,295.26 619.15,304.2L627.72,312.89L635.19,304.93C645.11,294.28 661.03,286.07 675.36,283.99C704.02,279.95 732.43,289.38 752.51,309.71C764.14,321.47 769.53,332.61 771.25,348.04L772.11,355.76L779.46,356.62C806.77,359.56 832.61,380.74 842.16,408.05C844.85,415.52 845.34,419.07 845.34,429.85C845.34,444.42 843.26,452.02 836.03,463.16L831.87,469.77L835.91,474.55C841.79,481.65 847.18,492.92 849.26,502.72C851.46,513.5 851.46,517.66 849.26,528.44C843.5,555.99 822.44,575.59 794.15,579.63L783.13,581.1L782.27,586.61C780.56,596.77 774.68,606.57 764.27,616.37C748.23,631.31 728.27,639.27 706.59,639.27C688.59,639.27 668.14,632.53 656.75,622.74C653.81,620.29 650.99,618.58 650.38,619.07C649.77,619.44 648.18,623.97 646.95,629.23C644.01,641.84 644.01,670.5 646.95,682.62C651.11,699.52 659.32,712.5 669.48,718.5C674.62,721.56 676.95,721.93 703.03,723.89C749.2,727.44 784.83,732.71 819.61,741.03C830.39,743.6 835.16,745.32 835.16,746.54C835.16,748.62 837.61,748.74 807.48,745.19C748.94,738.33 692.12,734.78 638.48,734.78C571.49,734.78 504.75,738.45 447.81,745.19C418.54,748.74 420.01,748.62 420.01,747.03L420.04,747.01ZM638.02,600.06C645.61,584.87 648.67,584.02 655.16,595.41C665.08,612.68 683.82,622.47 707.21,622.47C716.27,622.59 719.82,621.98 727.42,619.16C745.67,612.3 757.55,602.75 763.67,589.65C767.22,582.18 767.34,575.81 764.16,569.44C761.34,563.93 761.1,560.75 763.18,558.66C765.51,556.33 769.55,556.95 773.47,560.01C776.53,562.34 778.37,562.7 788.66,562.7C799.31,562.7 800.91,562.33 807.64,558.78C816.95,554 824.54,545.92 829.44,535.39C832.87,528.04 833.36,525.96 833.36,516.16C833.36,505.75 833.12,504.4 828.71,495.71C825.65,489.46 822.22,484.69 818.55,481.38C813.04,476.6 802.02,471.46 797.24,471.46C793.93,471.46 789.89,467.17 789.89,463.87C789.89,457.26 798.46,454.81 809.73,458.24C813.89,459.46 814.87,459.34 817.81,457.14C825.89,451.14 830.3,437.18 828.22,423.71C824.3,398.97 803.85,377.79 779.48,373.38C768.83,371.42 761.72,373.38 751.44,380.85C742.87,387.1 739.32,388.2 735.52,385.38C731.6,382.56 732.58,378.4 738.34,373.62C753.53,360.88 753.53,361.01 754.14,353.17C755.12,338.84 745.81,323.53 729.65,312.64C716.06,303.58 705.77,300.64 687.65,300.64C673.2,300.64 672.71,300.76 663.53,305.17C652.26,310.56 644.67,317.17 639.77,325.99C636.22,332.36 636.22,332.73 635.61,356.73C635,380.49 634.88,381.1 632.06,383.43C628.26,386.49 626.3,386.37 622.75,382.7C619.69,379.76 619.69,379.39 619.69,358.58C619.69,339.35 619.32,336.78 616.87,330.54C611.6,317.93 602.54,309.11 589.07,303.6C578.66,299.44 560.78,298.95 547.8,302.5C521.47,309.6 500.9,330.79 500.9,350.87C500.9,360.18 502.98,363.48 513.64,370.59C520.99,375.49 521.72,376.47 521.72,380.26C521.72,384.67 519.27,387 514.74,387C513.52,387 508,383.94 502.49,380.39C491.1,372.92 484.86,371.45 474.2,373.41C446.4,378.8 424.36,407.09 426.56,434.4C427.29,443.34 432.19,454.61 436.72,457.67C439.29,459.26 440.76,459.38 446.64,458.16C457.78,455.96 461.34,456.32 463.78,460C465.62,462.82 465.62,463.55 464.02,466.37C462.31,469.43 459.98,470.66 448.34,474.09C442.34,475.93 432.3,484.25 428.01,491.11C421.15,502.01 419.44,517.68 423.72,530.42C430.58,550.87 444.78,562.01 464.99,563.12C474.17,563.61 475.52,563.36 480.54,560.43C487.4,556.51 490.7,556.39 492.42,560.19C493.52,562.39 493.28,563.99 491.2,568.03C487.4,575.5 487.77,582.97 492.42,591.66C502.34,610.15 524.5,622.28 549.24,622.64C570.92,623.01 592.1,610.76 601.41,592.51C604.59,586.39 608.88,586.14 612.31,591.9C616.23,598.02 622.72,612.23 625.17,619.58L627.37,626.19L630.68,617.13C632.52,612.11 635.82,604.52 638.03,600.11L638.02,600.06Z" style="fill:rgb(3,55,31);fill-rule:nonzero;"/>
        </g>
        <g transform="matrix(0.511849,0,0,0.511849,-122.720395,-135.400657)">
            <path d="M555.48,580.46C546.05,577.52 538.83,568.7 538.46,559.4C538.22,554.5 538.46,554.13 541.52,553.77C545.93,553.28 553.89,557.57 557.68,562.46C561.35,567.24 563.8,577.77 561.84,580.09C560.37,581.93 560.37,581.93 555.47,580.46L555.48,580.46Z" style="fill:rgb(3,55,31);fill-rule:nonzero;"/>
        </g>
        <g transform="matrix(0.511849,0,0,0.511849,-122.720395,-135.400657)">
            <path d="M691.9,576.79C691.9,572.01 694.84,564.79 698.39,561.11C703.66,555.35 714.92,551.44 716.88,554.62C717.37,555.23 717,558.42 716.39,561.72C714.06,572.37 705,580.46 695.57,580.46C692.26,580.46 691.9,580.09 691.9,576.79Z" style="fill:rgb(3,55,31);fill-rule:nonzero;"/>
        </g>
        <g transform="matrix(0.511849,0,0,0.511849,-122.720395,-135.400657)">
            <path d="M480.78,524.26C480.41,523.77 480.54,521.69 481.15,519.61C485.19,505.4 496.7,497.2 512.38,497.2C517.77,497.2 518.01,497.32 518.01,500.63C517.89,508.47 510.66,518.51 501.85,523.04C497.07,525.49 482.01,526.35 480.79,524.26L480.78,524.26Z" style="fill:rgb(3,55,31);fill-rule:nonzero;"/>
        </g>
        <g transform="matrix(0.511849,0,0,0.511849,-122.720395,-135.400657)">
            <path d="M752.28,522.3C745.18,518.75 740.77,513.61 738.07,505.77C736.36,500.75 736.36,500.14 738.19,498.79C743.82,494.38 761.09,499.4 766.97,507.24C770.77,512.14 773.95,519.36 773.95,522.92C773.95,525.12 773.22,525.37 766.23,525.37C760.35,525.37 756.92,524.64 752.27,522.31L752.28,522.3Z" style="fill:rgb(3,55,31);fill-rule:nonzero;"/>
        </g>
        <g transform="matrix(0.511849,0,0,0.511849,-122.720395,-135.400657)">
            <path d="M491.93,432.9C486.05,430.94 481.77,427.02 478.7,421.02C474.78,413.43 475.27,412.69 484.33,412.69C493.15,412.69 497.19,414.28 502.33,419.67C505.27,422.85 508.21,428.36 508.21,431.06C508.21,432.16 500.49,434.73 497.8,434.73C497.19,434.61 494.49,433.87 491.92,432.89L491.93,432.9Z" style="fill:rgb(3,55,31);fill-rule:nonzero;"/>
        </g>
        <g transform="matrix(0.511849,0,0,0.511849,-122.720395,-135.400657)">
            <path d="M751.3,433.88C747.26,432.9 746.65,431.55 748.12,427.14C749.59,422.85 755.35,416.49 760.12,414.04C761.59,413.31 766.49,412.69 770.9,412.69L779.1,412.69L778.37,416.12C777.15,420.9 771.39,428.73 767.23,431.31C763.19,433.64 755.23,434.98 751.31,433.88L751.3,433.88Z" style="fill:rgb(3,55,31);fill-rule:nonzero;"/>
        </g>
        <g transform="matrix(0.511849,0,0,0.511849,-122.720395,-135.400657)">
            <path d="M570.18,368C567.49,367.02 563.93,365.31 562.22,363.96C557.69,360.78 553.4,351.71 553.77,346.57C554.14,342.9 554.63,342.28 557.57,341.92C562.96,341.31 571.16,346.82 574.22,353.06C576.67,358.2 577.77,367.88 575.81,368.98C575.32,369.35 572.75,368.86 570.18,368Z" style="fill:rgb(3,55,31);fill-rule:nonzero;"/>
        </g>
        <g transform="matrix(0.511849,0,0,0.511849,-122.720395,-135.400657)">
            <path d="M678.43,363.22C678.43,356.73 679.65,353.67 684.43,348.65C688.59,344 693.37,341.67 698.15,341.67L702.07,341.67L701.21,347.3C699.74,358.44 692.39,367.02 683.21,368.24L678.43,368.97L678.43,363.21L678.43,363.22Z" style="fill:rgb(3,55,31);fill-rule:nonzero;"/>
        </g>
        <g transform="matrix(0.511849,0,0,0.511849,-122.720395,-135.400657)">
            <path d="M552.54,700.6C539.31,696.07 528.17,685.78 521.56,671.94C517.52,663.61 518.5,663.12 537.36,663.12C552.18,663.12 553.28,663.24 560.87,666.92C573.61,672.92 584.99,686.51 585.73,696.31C585.97,699.37 585.49,699.74 579.85,701.21C571.28,703.54 560.26,703.29 552.54,700.6Z" style="fill:rgb(3,55,31);fill-rule:nonzero;"/>
        </g>
        <g transform="matrix(0.511849,0,0,0.511849,-122.720395,-135.400657)">
            <path d="M674.76,701.33C667.9,699.49 667.29,696.92 671.58,688.59C676.6,678.67 682.6,672.79 692.89,667.77C702.2,663.12 702.2,663.12 717.75,663.12C728.4,663.12 733.91,663.61 734.89,664.59C737.46,667.16 729.87,680.51 721.3,688.71C711.01,698.51 700.97,702.92 689.22,702.79C684.32,702.79 677.83,702.06 674.77,701.32L674.76,701.33Z" style="fill:rgb(3,55,31);fill-rule:nonzero;"/>
        </g>
        <g transform="matrix(0.511849,0,0,0.511849,-122.720395,-135.400657)">
            <path d="M613.53,550.83C551.32,497.19 541.03,485.8 535.77,465.96C529.77,442.69 539.81,419.79 560.87,408.4C566.87,405.22 569.07,404.73 580.22,404.36C590.14,403.99 594.06,404.24 598.59,405.95C609.24,409.99 617.69,417.09 626.14,428.97C627.49,430.93 628.1,430.56 632.75,423.95C638.51,415.87 649.65,407.54 657.98,405.09C665.94,402.89 680.51,403.25 687.98,405.7C700.96,410.23 713.94,423.21 718.47,436.19C719.94,440.72 720.67,445.86 720.55,453.09C720.43,465.09 717.49,474.03 710.39,484.93C704.76,493.5 673.41,525.83 668.14,528.28C666.06,529.26 656.75,537.34 647.57,546.04C638.26,554.86 629.81,562.08 628.59,562.08C627.37,561.96 620.63,556.94 613.53,550.81L613.53,550.83Z" style="fill:rgb(253,207,21);fill-rule:nonzero;"/>
        </g>
    </g>
</svg>
